<svg width="695" height="602" viewBox="0 0 695 602" fill="none" xmlns="http://www.w3.org/2000/svg">
<g clip-path="url(#clip0_801_17)">
<path d="M480.57 300.996C476.874 282.95 472.43 258.684 472.43 245.931C472.397 240.817 473.384 235.748 475.336 231.018C477.288 226.287 480.165 221.989 483.799 218.373C487.434 214.757 491.754 211.896 496.509 209.954C501.265 208.012 506.36 207.029 511.5 207.062C533.08 207.062 550.57 224.876 550.57 245.931C550.57 258.338 546.149 282.739 542.43 300.996M480.57 450.003C476.859 468.095 472.43 492.233 472.43 505.069C472.397 510.182 473.384 515.252 475.336 519.982C477.288 524.713 480.165 529.011 483.799 532.627C487.434 536.242 491.754 539.104 496.509 541.046C501.265 542.988 506.36 543.97 511.5 543.937C533.08 543.937 550.57 526.124 550.57 505.069C550.57 492.632 546.149 468.276 542.43 450.003M586.391 344.73C604.577 341.038 628.84 336.631 641.742 336.631C646.882 336.599 651.978 337.581 656.733 339.523C661.488 341.465 665.808 344.326 669.443 347.942C673.078 351.558 675.954 355.856 677.906 360.587C679.858 365.317 680.846 370.386 680.812 375.5C680.812 396.968 662.906 414.368 641.742 414.368C629.27 414.368 604.743 409.969 586.391 406.27M436.609 344.723C418.469 341.045 394.092 336.631 381.258 336.631C376.118 336.599 371.022 337.581 366.267 339.523C361.512 341.465 357.192 344.326 353.557 347.942C349.922 351.558 347.046 355.856 345.094 360.587C343.142 365.317 342.154 370.386 342.188 375.5C342.188 396.968 360.094 414.368 381.258 414.368C393.73 414.368 418.257 409.969 436.609 406.27" fill="#DF5C69"/>
<path d="M480.57 300.996C476.874 282.95 472.43 258.684 472.43 245.931C472.397 240.817 473.384 235.748 475.336 231.018C477.288 226.287 480.165 221.989 483.799 218.373C487.434 214.757 491.754 211.896 496.509 209.954C501.265 208.012 506.36 207.029 511.5 207.062C533.08 207.062 550.57 224.876 550.57 245.931C550.57 258.338 546.149 282.739 542.43 300.996M480.57 450.003C476.859 468.095 472.43 492.233 472.43 505.069C472.397 510.182 473.384 515.252 475.336 519.982C477.288 524.713 480.165 529.011 483.799 532.627C487.434 536.242 491.754 539.104 496.509 541.046C501.265 542.988 506.36 543.97 511.5 543.937C533.08 543.937 550.57 526.124 550.57 505.069C550.57 492.632 546.149 468.276 542.43 450.003M586.391 344.73C604.577 341.038 628.84 336.631 641.742 336.631C646.882 336.599 651.978 337.581 656.733 339.523C661.488 341.465 665.808 344.326 669.443 347.942C673.078 351.558 675.954 355.856 677.906 360.587C679.858 365.317 680.846 370.386 680.813 375.5C680.813 396.968 662.906 414.368 641.742 414.368C629.27 414.368 604.743 409.969 586.391 406.27M436.609 344.723C418.469 341.045 394.092 336.631 381.258 336.631C376.118 336.599 371.022 337.581 366.267 339.523C361.512 341.465 357.192 344.326 353.557 347.942C349.922 351.558 347.046 355.856 345.094 360.587C343.142 365.317 342.154 370.386 342.188 375.5C342.188 396.968 360.094 414.368 381.258 414.368C393.73 414.368 418.257 409.969 436.609 406.27" stroke="#E594A9" stroke-width="28" stroke-miterlimit="10" stroke-linecap="round"/>
<path d="M542.43 300.996C552.672 285.596 566.844 265.467 575.967 256.398C579.578 252.758 583.879 249.868 588.622 247.895C593.364 245.923 598.453 244.907 603.594 244.907C608.734 244.907 613.823 245.923 618.566 247.895C623.309 249.868 627.61 252.758 631.221 256.398C646.481 271.58 646.187 296.477 631.221 311.366C622.407 320.141 601.991 334.428 586.391 344.73M436.609 406.27C421.129 416.459 400.895 430.558 391.779 439.634C388.121 443.226 385.215 447.505 383.233 452.223C381.25 456.941 380.229 462.004 380.229 467.118C380.229 472.232 381.25 477.295 383.233 482.013C385.215 486.731 388.121 491.01 391.779 494.602C407.04 509.784 432.067 509.491 447.033 494.602C455.854 485.834 470.215 465.524 480.57 450.003M586.391 406.27C601.87 416.459 622.105 430.558 631.221 439.634C634.879 443.226 637.785 447.505 639.767 452.223C641.75 456.941 642.771 462.004 642.771 467.118C642.771 472.232 641.75 477.295 639.767 482.013C637.785 486.731 634.879 491.01 631.221 494.602C615.96 509.784 590.933 509.491 575.967 494.602C567.131 485.812 552.793 465.539 542.43 450.003M480.57 300.996C470.343 285.634 456.095 265.414 447.033 256.398C443.422 252.758 439.121 249.868 434.378 247.895C429.636 245.923 424.546 244.907 419.406 244.907C414.266 244.907 409.177 245.923 404.434 247.895C399.691 249.868 395.39 252.758 391.779 256.398C376.519 271.58 376.813 296.477 391.779 311.366C400.555 320.096 421.031 334.436 436.609 344.73" fill="#DF5C69"/>
<path d="M542.43 300.996C552.672 285.596 566.844 265.467 575.967 256.398C579.578 252.758 583.879 249.868 588.622 247.895C593.364 245.923 598.453 244.907 603.594 244.907C608.734 244.907 613.823 245.923 618.566 247.895C623.308 249.868 627.61 252.758 631.221 256.398C646.481 271.58 646.187 296.477 631.221 311.366C622.407 320.141 601.991 334.428 586.39 344.73M436.609 406.27C421.129 416.459 400.895 430.558 391.779 439.634C388.121 443.226 385.215 447.505 383.233 452.223C381.25 456.941 380.229 462.004 380.229 467.118C380.229 472.232 381.25 477.295 383.233 482.013C385.215 486.731 388.121 491.01 391.779 494.602C407.04 509.784 432.067 509.491 447.033 494.602C455.854 485.834 470.215 465.524 480.57 450.003M586.39 406.27C601.87 416.459 622.105 430.558 631.221 439.634C634.879 443.226 637.785 447.505 639.767 452.223C641.75 456.941 642.771 462.004 642.771 467.118C642.771 472.232 641.75 477.295 639.767 482.013C637.785 486.731 634.879 491.01 631.221 494.602C615.96 509.784 590.933 509.491 575.967 494.602C567.131 485.812 552.793 465.539 542.43 450.003M480.57 300.996C470.343 285.634 456.095 265.414 447.033 256.398C443.422 252.758 439.121 249.868 434.378 247.895C429.636 245.923 424.546 244.907 419.406 244.907C414.266 244.907 409.177 245.923 404.434 247.895C399.691 249.868 395.39 252.758 391.779 256.398C376.519 271.58 376.813 296.477 391.779 311.366C400.555 320.096 421.031 334.436 436.609 344.73" stroke="#E594A9" stroke-width="28" stroke-miterlimit="10" stroke-linecap="round"/>
<path d="M511.878 440.92C547.987 440.92 577.26 411.799 577.26 375.876C577.26 339.953 547.987 310.832 511.878 310.832C475.769 310.832 446.496 339.953 446.496 375.876C446.496 411.799 475.769 440.92 511.878 440.92Z" stroke="#E594A9" stroke-width="28" stroke-miterlimit="10" stroke-linecap="round"/>
<path d="M511.5 423.625C538.217 423.625 559.875 402.079 559.875 375.5C559.875 348.921 538.217 327.375 511.5 327.375C484.783 327.375 463.125 348.921 463.125 375.5C463.125 402.079 484.783 423.625 511.5 423.625Z" fill="#E8AD7C" stroke="#E594A9" stroke-width="28" stroke-miterlimit="10" stroke-linecap="round"/>
<path d="M115.942 411.283C113.306 398.393 110.136 381.06 110.136 371.951C110.112 368.298 110.817 364.677 112.209 361.298C113.601 357.919 115.652 354.849 118.244 352.267C120.837 349.684 123.918 347.64 127.309 346.253C130.7 344.866 134.334 344.164 138 344.187C153.39 344.187 165.864 356.912 165.864 371.951C165.864 380.813 162.711 398.242 160.058 411.283M115.942 517.717C113.295 530.64 110.136 547.881 110.136 557.049C110.112 560.702 110.817 564.323 112.209 567.702C113.601 571.081 115.652 574.151 118.244 576.733C120.837 579.316 123.918 581.36 127.309 582.747C130.7 584.134 134.334 584.836 138 584.812C153.39 584.812 165.864 572.088 165.864 557.049C165.864 548.165 162.711 530.769 160.058 517.717M191.41 442.521C204.38 439.884 221.684 436.737 230.886 436.737C234.552 436.713 238.186 437.415 241.577 438.802C244.968 440.189 248.049 442.233 250.641 444.816C253.234 447.399 255.285 450.469 256.677 453.848C258.069 457.227 258.774 460.847 258.75 464.5C258.75 479.834 245.98 492.263 230.886 492.263C221.991 492.263 204.499 489.121 191.41 486.478M84.5897 442.516C71.6522 439.89 54.2674 436.737 45.1141 436.737C41.4484 436.713 37.8144 437.415 34.4231 438.802C31.0318 440.189 27.9507 442.233 25.3585 444.816C22.7664 447.399 20.7148 450.469 19.3229 453.848C17.931 457.227 17.2264 460.847 17.25 464.5C17.25 479.834 30.0204 492.263 45.1141 492.263C54.0087 492.263 71.5012 489.121 84.5897 486.478" fill="#BEB9F4"/>
<path d="M115.942 411.283C113.306 398.393 110.136 381.06 110.136 371.951C110.112 368.298 110.817 364.677 112.209 361.298C113.601 357.919 115.652 354.849 118.244 352.267C120.837 349.684 123.918 347.64 127.309 346.253C130.7 344.866 134.334 344.164 138 344.187C153.39 344.187 165.864 356.912 165.864 371.951C165.864 380.813 162.711 398.242 160.058 411.283M115.942 517.717C113.295 530.64 110.136 547.881 110.136 557.049C110.112 560.702 110.817 564.323 112.209 567.702C113.601 571.081 115.652 574.151 118.244 576.733C120.837 579.316 123.918 581.36 127.309 582.747C130.7 584.134 134.334 584.836 138 584.812C153.39 584.812 165.864 572.088 165.864 557.049C165.864 548.165 162.711 530.769 160.058 517.717M191.41 442.521C204.38 439.884 221.684 436.737 230.886 436.737C234.552 436.713 238.186 437.415 241.577 438.802C244.968 440.189 248.049 442.233 250.641 444.816C253.234 447.399 255.285 450.469 256.677 453.848C258.069 457.227 258.774 460.847 258.75 464.5C258.75 479.834 245.98 492.263 230.886 492.263C221.991 492.263 204.499 489.121 191.41 486.478M84.5897 442.516C71.6522 439.89 54.2674 436.737 45.1141 436.737C41.4484 436.713 37.8144 437.415 34.4231 438.802C31.0318 440.189 27.9507 442.233 25.3585 444.816C22.7664 447.399 20.7148 450.469 19.3229 453.848C17.931 457.227 17.2264 460.847 17.25 464.5C17.25 479.834 30.0204 492.263 45.1141 492.263C54.0087 492.263 71.5012 489.121 84.5897 486.478" stroke="#D1CDFF" stroke-width="20" stroke-miterlimit="10" stroke-linecap="round"/>
<path d="M160.058 411.283C167.363 400.283 177.47 385.905 183.977 379.427C186.552 376.827 189.619 374.763 193.002 373.354C196.384 371.945 200.013 371.219 203.679 371.219C207.345 371.219 210.975 371.945 214.357 373.354C217.739 374.763 220.807 376.827 223.382 379.427C234.266 390.271 234.056 408.055 223.382 418.69C217.097 424.958 202.537 435.163 191.41 442.521M84.5897 486.478C73.5497 493.756 59.119 503.827 52.6179 510.31C50.0085 512.876 47.9366 515.932 46.5224 519.302C45.1083 522.672 44.3801 526.289 44.3801 529.941C44.3801 533.594 45.1083 537.21 46.5224 540.58C47.9366 543.95 50.0085 547.007 52.6179 549.573C63.5016 560.417 81.3499 560.207 92.0234 549.573C98.3142 543.31 108.556 528.803 115.942 517.717M191.41 486.478C202.45 493.756 216.881 503.827 223.382 510.31C225.992 512.876 228.063 515.932 229.478 519.302C230.892 522.672 231.62 526.289 231.62 529.941C231.62 533.594 230.892 537.21 229.478 540.58C228.063 543.95 225.992 547.007 223.382 549.573C212.498 560.417 194.65 560.207 183.977 549.573C177.675 543.294 167.449 528.813 160.058 517.717M115.942 411.283C108.648 400.31 98.4867 385.867 92.0234 379.427C89.4484 376.827 86.3807 374.763 82.9984 373.354C79.6161 371.945 75.9866 371.219 72.3206 371.219C68.6546 371.219 65.0251 371.945 61.6429 373.354C58.2606 374.763 55.1929 376.827 52.6179 379.427C41.7342 390.271 41.9445 408.055 52.6179 418.69C58.8764 424.926 73.4796 435.168 84.5897 442.521" fill="#BEB9F4"/>
<path d="M160.058 411.283C167.363 400.283 177.47 385.905 183.977 379.427C186.552 376.827 189.619 374.763 193.002 373.354C196.384 371.945 200.013 371.219 203.679 371.219C207.345 371.219 210.975 371.945 214.357 373.354C217.739 374.763 220.807 376.827 223.382 379.427C234.266 390.271 234.056 408.055 223.382 418.69C217.097 424.958 202.537 435.163 191.41 442.521M84.5897 486.478C73.5497 493.756 59.119 503.827 52.6179 510.31C50.0085 512.876 47.9366 515.932 46.5224 519.302C45.1083 522.672 44.3801 526.289 44.3801 529.941C44.3801 533.594 45.1083 537.21 46.5224 540.58C47.9366 543.95 50.0085 547.007 52.6179 549.573C63.5016 560.417 81.3499 560.207 92.0234 549.573C98.3142 543.31 108.556 528.803 115.942 517.717M191.41 486.478C202.45 493.756 216.881 503.827 223.382 510.31C225.992 512.876 228.063 515.932 229.478 519.302C230.892 522.672 231.62 526.289 231.62 529.941C231.62 533.594 230.892 537.21 229.478 540.58C228.063 543.95 225.992 547.007 223.382 549.573C212.498 560.417 194.65 560.207 183.977 549.573C177.675 543.294 167.449 528.813 160.058 517.717M115.942 411.283C108.648 400.31 98.4867 385.867 92.0234 379.427C89.4484 376.827 86.3807 374.763 82.9984 373.354C79.6161 371.945 75.9866 371.219 72.3206 371.219C68.6546 371.219 65.0251 371.945 61.6429 373.354C58.2606 374.763 55.1929 376.827 52.6179 379.427C41.7342 390.271 41.9445 408.055 52.6179 418.69C58.8764 424.926 73.4796 435.168 84.5897 442.521" stroke="#D1CDFF" stroke-width="20" stroke-miterlimit="10" stroke-linecap="round"/>
<path d="M138.27 511.229C164.022 511.229 184.898 490.428 184.898 464.769C184.898 439.109 164.022 418.309 138.27 418.309C112.517 418.309 91.6406 439.109 91.6406 464.769C91.6406 490.428 112.517 511.229 138.27 511.229Z" stroke="#D1CDFF" stroke-width="20" stroke-miterlimit="10" stroke-linecap="round"/>
<path d="M138 498.875C157.054 498.875 172.5 483.485 172.5 464.5C172.5 445.515 157.054 430.125 138 430.125C118.946 430.125 103.5 445.515 103.5 464.5C103.5 483.485 118.946 498.875 138 498.875Z" fill="#E5F3E9" stroke="#D1CDFF" stroke-width="20" stroke-miterlimit="10" stroke-linecap="round"/>
<path d="M608.733 50.57C607.148 42.8356 605.241 32.4361 605.241 26.9705C605.227 24.779 605.651 22.6065 606.488 20.5791C607.325 18.5517 608.559 16.7097 610.118 15.1601C611.677 13.6104 613.53 12.384 615.57 11.5518C617.61 10.7197 619.795 10.2985 622 10.3126C631.256 10.3126 638.759 17.9471 638.759 26.9705C638.759 32.2879 636.862 42.7454 635.267 50.57M608.733 114.43C607.141 122.184 605.241 132.529 605.241 138.03C605.227 140.221 605.651 142.394 606.488 144.421C607.325 146.448 608.559 148.29 610.118 149.84C611.677 151.39 613.53 152.616 615.57 153.448C617.61 154.281 619.795 154.702 622 154.688C631.256 154.688 638.759 147.053 638.759 138.03C638.759 132.699 636.862 122.261 635.267 114.43M654.124 69.313C661.924 67.7307 672.332 65.8422 677.866 65.8422C680.071 65.8281 682.257 66.2493 684.296 67.0814C686.336 67.9136 688.189 69.14 689.748 70.6897C691.307 72.2393 692.541 74.0813 693.378 76.1087C694.215 78.1361 694.639 80.3086 694.625 82.5001C694.625 91.7008 686.944 99.158 677.866 99.158C672.517 99.158 661.996 97.2728 654.124 95.6872M589.876 69.3098C582.095 67.7339 571.639 65.8422 566.134 65.8422C563.929 65.8281 561.743 66.2493 559.704 67.0814C557.664 67.9136 555.811 69.14 554.252 70.6897C552.693 72.2393 551.459 74.0813 550.622 76.1087C549.785 78.1361 549.361 80.3086 549.375 82.5001C549.375 91.7008 557.056 99.158 566.134 99.158C571.483 99.158 582.004 97.2728 589.876 95.6872" fill="#BEB9F4"/>
<path d="M608.733 50.57C607.148 42.8356 605.241 32.4361 605.241 26.9705C605.227 24.779 605.651 22.6065 606.488 20.5791C607.325 18.5517 608.559 16.7097 610.118 15.1601C611.677 13.6104 613.53 12.384 615.57 11.5518C617.61 10.7197 619.795 10.2985 622 10.3126C631.256 10.3126 638.759 17.9471 638.759 26.9705C638.759 32.2879 636.862 42.7454 635.267 50.57M608.733 114.43C607.141 122.184 605.241 132.529 605.241 138.03C605.227 140.221 605.651 142.394 606.488 144.421C607.325 146.448 608.559 148.29 610.118 149.84C611.677 151.39 613.53 152.616 615.57 153.448C617.61 154.281 619.795 154.702 622 154.688C631.256 154.688 638.759 147.053 638.759 138.03C638.759 132.699 636.862 122.261 635.267 114.43M654.124 69.313C661.924 67.7307 672.332 65.8422 677.866 65.8422C680.071 65.8281 682.257 66.2493 684.296 67.0814C686.336 67.9136 688.189 69.14 689.748 70.6897C691.307 72.2393 692.541 74.0813 693.378 76.1087C694.215 78.1361 694.639 80.3086 694.625 82.5001C694.625 91.7008 686.944 99.158 677.866 99.158C672.517 99.158 661.996 97.2728 654.124 95.6872M589.876 69.3098C582.095 67.7339 571.639 65.8422 566.134 65.8422C563.929 65.8281 561.743 66.2493 559.704 67.0814C557.664 67.9136 555.811 69.14 554.252 70.6897C552.693 72.2393 551.459 74.0813 550.622 76.1087C549.785 78.1361 549.361 80.3086 549.375 82.5001C549.375 91.7008 557.056 99.158 566.134 99.158C571.483 99.158 582.004 97.2728 589.876 95.6872" stroke="#D1CDFF" stroke-width="10" stroke-miterlimit="10" stroke-linecap="round"/>
<path d="M635.267 50.5698C639.66 43.9698 645.739 35.3428 649.653 31.4563C651.201 29.8963 653.046 28.6577 655.081 27.8122C657.115 26.9668 659.298 26.5315 661.503 26.5315C663.708 26.5315 665.891 26.9668 667.925 27.8122C669.959 28.6577 671.804 29.8963 673.353 31.4563C679.899 37.9628 679.773 48.633 673.353 55.0139C669.573 58.7747 660.815 64.8978 654.124 69.3128M589.876 95.687C583.236 100.054 574.557 106.096 570.647 109.986C569.078 111.525 567.831 113.359 566.981 115.381C566.13 117.403 565.692 119.573 565.692 121.765C565.692 123.956 566.13 126.126 566.981 128.148C567.831 130.17 569.078 132.004 570.647 133.544C577.193 140.05 587.928 139.924 594.347 133.544C598.131 129.786 604.291 121.082 608.733 114.43M654.124 95.687C660.764 100.054 669.443 106.096 673.353 109.986C674.922 111.525 676.169 113.359 677.019 115.381C677.87 117.403 678.308 119.573 678.308 121.765C678.308 123.956 677.87 126.126 677.019 128.148C676.169 130.17 674.922 132.004 673.353 133.544C666.807 140.05 656.072 139.924 649.653 133.544C645.863 129.776 639.712 121.088 635.267 114.43M608.733 50.5698C604.346 43.986 598.235 35.3202 594.347 31.4563C592.799 29.8963 590.954 28.6577 588.919 27.8122C586.885 26.9668 584.702 26.5315 582.497 26.5315C580.292 26.5315 578.109 26.9668 576.075 27.8122C574.041 28.6577 572.196 29.8963 570.647 31.4563C564.101 37.9628 564.227 48.633 570.647 55.0139C574.411 58.7554 583.194 64.901 589.876 69.3128" fill="#BEB9F4"/>
<path d="M635.267 50.5698C639.66 43.9698 645.739 35.3428 649.653 31.4563C651.201 29.8963 653.046 28.6577 655.081 27.8122C657.115 26.9668 659.298 26.5315 661.503 26.5315C663.708 26.5315 665.891 26.9668 667.925 27.8122C669.959 28.6577 671.804 29.8963 673.353 31.4563C679.899 37.9628 679.773 48.633 673.353 55.0139C669.573 58.7747 660.815 64.8978 654.124 69.3128M589.876 95.687C583.236 100.054 574.557 106.096 570.647 109.986C569.078 111.525 567.831 113.359 566.981 115.381C566.13 117.403 565.692 119.573 565.692 121.765C565.692 123.956 566.13 126.126 566.981 128.148C567.831 130.17 569.078 132.004 570.647 133.544C577.193 140.05 587.928 139.924 594.347 133.544C598.131 129.786 604.291 121.082 608.733 114.43M654.124 95.687C660.764 100.054 669.443 106.096 673.353 109.986C674.922 111.525 676.169 113.359 677.019 115.381C677.87 117.403 678.308 119.573 678.308 121.765C678.308 123.956 677.87 126.126 677.019 128.148C676.169 130.17 674.922 132.004 673.353 133.544C666.807 140.05 656.072 139.924 649.653 133.544C645.863 129.776 639.712 121.088 635.267 114.43M608.733 50.5698C604.346 43.986 598.235 35.3202 594.347 31.4563C592.799 29.8963 590.954 28.6577 588.919 27.8122C586.885 26.9668 584.702 26.5315 582.497 26.5315C580.292 26.5315 578.109 26.9668 576.075 27.8122C574.041 28.6577 572.196 29.8963 570.647 31.4563C564.101 37.9628 564.227 48.633 570.647 55.0139C574.411 58.7554 583.194 64.901 589.876 69.3128" stroke="#D1CDFF" stroke-width="10" stroke-miterlimit="10" stroke-linecap="round"/>
<path d="M622.162 110.537C637.651 110.537 650.207 98.0566 650.207 82.6611C650.207 67.2657 637.651 54.7852 622.162 54.7852C606.673 54.7852 594.117 67.2657 594.117 82.6611C594.117 98.0566 606.673 110.537 622.162 110.537Z" stroke="#D1CDFF" stroke-width="10" stroke-miterlimit="10" stroke-linecap="round"/>
<path d="M622 103.125C633.46 103.125 642.75 93.8909 642.75 82.5C642.75 71.1091 633.46 61.875 622 61.875C610.54 61.875 601.25 71.1091 601.25 82.5C601.25 93.8909 610.54 103.125 622 103.125Z" fill="#E5F3E9" stroke="#D1CDFF" stroke-width="10" stroke-miterlimit="10" stroke-linecap="round"/>
</g>
<defs>
<clipPath id="clip0_801_17">
<rect width="695" height="602" fill="white"/>
</clipPath>
</defs>
</svg>
